<svg xmlns="http://www.w3.org/2000/svg" xmlns:xlink="http://www.w3.org/1999/xlink" width="1920" zoomAndPan="magnify" viewBox="0 0 1440 809.999993" height="1080" preserveAspectRatio="xMidYMid meet" version="1.2"><defs><clipPath id="602c7b824a"><path d="M 500 87.714844 L 744 87.714844 L 744 440.214844 L 500 440.214844 Z M 500 87.714844 "/></clipPath></defs><g id="9aa2b47966"><rect x="0" width="1440" y="0" height="809.999993" style="fill:#ffffff;fill-opacity:1;stroke:none;"/><rect x="0" width="1440" y="0" height="809.999993" style="fill:#ffffff;fill-opacity:1;stroke:none;"/><g clip-rule="nonzero" clip-path="url(#602c7b824a)"><path style=" stroke:none;fill-rule:nonzero;fill:#000000;fill-opacity:1;" d="M 713.324219 233.695312 L 743.488281 209.195312 L 713.324219 184.691406 L 727.179688 148.414062 L 688.78125 142.289062 L 682.644531 103.957031 L 646.304688 117.789062 L 621.761719 87.675781 L 597.21875 117.789062 L 560.878906 103.957031 L 554.742188 142.289062 L 516.34375 148.414062 L 530.199219 184.691406 L 500.03125 209.195312 L 530.199219 233.695312 L 516.34375 269.972656 L 554.742188 276.136719 L 555.691406 282.144531 L 533.601562 417.375 C 533.417969 418.511719 533.402344 419.652344 533.550781 420.796875 C 533.703125 421.941406 534.011719 423.039062 534.484375 424.089844 C 534.957031 425.144531 535.566406 426.109375 536.320312 426.984375 C 537.074219 427.855469 537.933594 428.605469 538.90625 429.230469 C 539.816406 429.785156 540.785156 430.191406 541.820312 430.449219 C 542.851562 430.703125 543.902344 430.800781 544.964844 430.734375 C 546.027344 430.664062 547.054688 430.4375 548.046875 430.054688 C 549.039062 429.671875 549.953125 429.144531 550.78125 428.480469 L 577.109375 408.207031 L 595.394531 435.394531 C 595.855469 436.117188 596.394531 436.773438 597.015625 437.363281 C 597.632812 437.953125 598.316406 438.457031 599.0625 438.878906 C 599.808594 439.300781 600.597656 439.625 601.421875 439.851562 C 602.25 440.074219 603.089844 440.199219 603.945312 440.214844 C 604.636719 440.21875 605.320312 440.160156 605.996094 440.035156 C 606.671875 439.914062 607.335938 439.730469 607.976562 439.484375 C 608.621094 439.242188 609.238281 438.9375 609.824219 438.582031 C 610.410156 438.222656 610.960938 437.8125 611.472656 437.351562 C 611.984375 436.890625 612.449219 436.390625 612.867188 435.84375 C 613.285156 435.296875 613.652344 434.71875 613.960938 434.105469 C 614.273438 433.492188 614.523438 432.855469 614.71875 432.195312 C 614.910156 431.535156 615.042969 430.863281 615.109375 430.179688 L 626.984375 354.183594 L 642.820312 427.847656 C 643.054688 428.996094 643.449219 430.089844 644.007812 431.121094 C 644.566406 432.15625 645.261719 433.085938 646.097656 433.914062 C 646.933594 434.738281 647.871094 435.425781 648.910156 435.976562 C 649.949219 436.523438 651.046875 436.910156 652.203125 437.132812 L 653.90625 437.132812 C 654.816406 437.132812 655.714844 437.011719 656.59375 436.773438 C 657.476562 436.535156 658.3125 436.1875 659.097656 435.730469 C 659.886719 435.273438 660.605469 434.71875 661.246094 434.074219 C 661.890625 433.425781 662.4375 432.707031 662.890625 431.917969 L 679.597656 403.820312 L 707.03125 422.511719 C 707.898438 423.125 708.839844 423.589844 709.851562 423.914062 C 710.867188 424.234375 711.902344 424.394531 712.96875 424.394531 C 714.03125 424.394531 715.070312 424.234375 716.082031 423.914062 C 717.097656 423.589844 718.035156 423.125 718.90625 422.511719 C 719.855469 421.828125 720.683594 421.023438 721.394531 420.097656 C 722.109375 419.167969 722.667969 418.160156 723.082031 417.066406 C 723.492188 415.972656 723.738281 414.84375 723.816406 413.675781 C 723.894531 412.511719 723.800781 411.359375 723.535156 410.222656 L 695.550781 275.03125 L 727.21875 269.972656 Z M 602.917969 423.382812 L 586.371094 398.878906 C 585.574219 397.660156 584.566406 396.652344 583.347656 395.855469 C 582.128906 395.058594 580.800781 394.539062 579.363281 394.296875 C 577.90625 394.0625 576.460938 394.128906 575.03125 394.492188 C 573.597656 394.855469 572.296875 395.488281 571.128906 396.390625 L 547.378906 414.726562 L 563.925781 313.324219 L 597.296875 300.597656 L 618.394531 326.484375 Z M 685.097656 391.609375 C 683.890625 390.78125 682.566406 390.226562 681.128906 389.945312 C 679.691406 389.664062 678.257812 389.679688 676.824219 389.988281 C 675.398438 390.3125 674.097656 390.90625 672.917969 391.769531 C 671.742188 392.636719 670.785156 393.703125 670.054688 394.96875 L 654.933594 420.339844 L 632.566406 317.589844 L 646.304688 300.71875 L 682.644531 314.589844 L 686.007812 293.484375 L 710.039062 408.640625 Z M 677.179688 264.714844 L 672.074219 296.332031 L 641.910156 284.832031 L 621.761719 310.203125 L 601.414062 285.1875 L 571.25 296.6875 L 566.140625 265.070312 L 534.273438 259.617188 L 545.792969 229.507812 L 520.777344 209.195312 L 545.792969 188.882812 L 534.273438 158.769531 L 566.339844 153.671875 L 571.445312 122.058594 L 601.609375 133.515625 L 621.761719 108.382812 L 642.109375 133.359375 L 672.273438 121.898438 L 677.378906 153.511719 L 709.046875 158.609375 L 697.726562 188.882812 L 722.746094 209.195312 L 697.726562 229.507812 L 709.246094 259.617188 Z M 622.394531 148.375 C 620.335938 148.371094 618.28125 148.46875 616.234375 148.667969 C 614.183594 148.863281 612.148438 149.160156 610.128906 149.558594 C 608.109375 149.957031 606.113281 150.453125 604.144531 151.042969 C 602.171875 151.636719 600.234375 152.324219 598.332031 153.109375 C 596.429688 153.890625 594.566406 154.765625 592.75 155.734375 C 590.933594 156.699219 589.167969 157.75 587.453125 158.890625 C 585.742188 160.027344 584.089844 161.25 582.496094 162.550781 C 580.902344 163.851562 579.375 165.226562 577.917969 166.679688 C 576.460938 168.128906 575.078125 169.648438 573.769531 171.234375 C 572.460938 172.824219 571.234375 174.46875 570.085938 176.175781 C 568.941406 177.882812 567.882812 179.644531 566.910156 181.453125 C 565.9375 183.265625 565.054688 185.121094 564.265625 187.015625 C 563.472656 188.914062 562.777344 190.847656 562.179688 192.8125 C 561.578125 194.777344 561.078125 196.769531 560.671875 198.785156 C 560.269531 200.800781 559.964844 202.828125 559.761719 204.875 C 559.558594 206.917969 559.453125 208.96875 559.453125 211.023438 C 559.449219 213.078125 559.546875 215.128906 559.75 217.175781 C 559.949219 219.222656 560.246094 221.25 560.648438 223.265625 C 561.046875 225.285156 561.546875 227.273438 562.140625 229.242188 C 562.738281 231.210938 563.425781 233.140625 564.214844 235.042969 C 565 236.941406 565.878906 238.796875 566.847656 240.609375 C 567.816406 242.421875 568.871094 244.183594 570.015625 245.894531 C 571.15625 247.605469 572.378906 249.253906 573.683594 250.84375 C 574.988281 252.433594 576.371094 253.953125 577.824219 255.410156 C 579.277344 256.863281 580.800781 258.242188 582.390625 259.546875 C 583.984375 260.851562 585.632812 262.074219 587.34375 263.21875 C 589.054688 264.359375 590.820312 265.417969 592.632812 266.386719 C 594.449219 267.355469 596.308594 268.234375 598.210938 269.023438 C 600.109375 269.808594 602.046875 270.5 604.015625 271.097656 C 605.984375 271.695312 607.980469 272.195312 610 272.597656 C 612.019531 273 614.050781 273.300781 616.101562 273.5 C 618.148438 273.703125 620.203125 273.804688 622.261719 273.804688 C 624.320312 273.804688 626.375 273.707031 628.421875 273.503906 C 630.472656 273.304688 632.503906 273.003906 634.523438 272.601562 C 636.542969 272.199219 638.539062 271.703125 640.507812 271.105469 C 642.480469 270.507812 644.414062 269.816406 646.316406 269.03125 C 648.21875 268.246094 650.078125 267.367188 651.894531 266.398438 C 653.707031 265.429688 655.472656 264.375 657.183594 263.234375 C 658.894531 262.089844 660.546875 260.867188 662.136719 259.5625 C 663.730469 258.257812 665.25 256.882812 666.707031 255.425781 C 668.164062 253.972656 669.542969 252.453125 670.847656 250.863281 C 672.15625 249.273438 673.378906 247.625 674.523438 245.917969 C 675.664062 244.207031 676.722656 242.445312 677.691406 240.632812 C 678.660156 238.820312 679.539062 236.964844 680.328125 235.066406 C 681.113281 233.167969 681.804688 231.234375 682.402344 229.265625 C 683 227.300781 683.496094 225.308594 683.898438 223.292969 C 684.296875 221.277344 684.597656 219.246094 684.800781 217.203125 C 685 215.15625 685.101562 213.105469 685.097656 211.050781 C 685.097656 209 684.992188 206.957031 684.789062 204.914062 C 684.585938 202.875 684.285156 200.847656 683.882812 198.839844 C 683.480469 196.828125 682.980469 194.84375 682.382812 192.878906 C 681.785156 190.917969 681.09375 188.992188 680.304688 187.097656 C 679.519531 185.203125 678.640625 183.351562 677.671875 181.542969 C 676.707031 179.734375 675.652344 177.980469 674.511719 176.273438 C 673.367188 174.570312 672.148438 172.921875 670.84375 171.339844 C 669.542969 169.753906 668.164062 168.234375 666.714844 166.785156 C 665.261719 165.332031 663.746094 163.957031 662.15625 162.65625 C 660.570312 161.351562 658.925781 160.132812 657.21875 158.988281 C 655.511719 157.847656 653.753906 156.792969 651.941406 155.824219 C 650.132812 154.855469 648.28125 153.976562 646.382812 153.191406 C 644.488281 152.402344 642.558594 151.710938 640.59375 151.109375 C 638.628906 150.511719 636.640625 150.011719 634.625 149.605469 C 632.613281 149.203125 630.582031 148.898438 628.539062 148.691406 C 626.496094 148.484375 624.449219 148.382812 622.394531 148.375 Z M 622.394531 263.964844 C 620.65625 263.964844 618.925781 263.878906 617.199219 263.710938 C 615.472656 263.542969 613.753906 263.285156 612.054688 262.949219 C 610.351562 262.609375 608.667969 262.191406 607.007812 261.6875 C 605.347656 261.183594 603.714844 260.601562 602.109375 259.9375 C 600.503906 259.273438 598.9375 258.535156 597.40625 257.71875 C 595.875 256.902344 594.390625 256.011719 592.945312 255.046875 C 591.503906 254.085938 590.109375 253.054688 588.765625 251.953125 C 587.425781 250.855469 586.140625 249.691406 584.914062 248.46875 C 583.6875 247.242188 582.519531 245.960938 581.417969 244.621094 C 580.320312 243.28125 579.285156 241.890625 578.320312 240.449219 C 577.355469 239.007812 576.464844 237.523438 575.648438 235.996094 C 574.828125 234.464844 574.085938 232.902344 573.421875 231.300781 C 572.757812 229.699219 572.175781 228.070312 571.671875 226.410156 C 571.167969 224.753906 570.746094 223.074219 570.40625 221.375 C 570.066406 219.675781 569.8125 217.960938 569.644531 216.238281 C 569.472656 214.511719 569.386719 212.785156 569.386719 211.050781 C 569.386719 209.316406 569.472656 207.589844 569.644531 205.863281 C 569.8125 204.140625 570.066406 202.429688 570.40625 200.726562 C 570.746094 199.027344 571.167969 197.347656 571.671875 195.691406 C 572.175781 194.03125 572.757812 192.402344 573.421875 190.800781 C 574.085938 189.199219 574.828125 187.636719 575.648438 186.109375 C 576.464844 184.578125 577.355469 183.09375 578.320312 181.652344 C 579.285156 180.210938 580.320312 178.820312 581.417969 177.484375 C 582.519531 176.144531 583.6875 174.859375 584.914062 173.636719 C 586.140625 172.410156 587.425781 171.246094 588.765625 170.148438 C 590.109375 169.046875 591.503906 168.015625 592.945312 167.054688 C 594.390625 166.089844 595.875 165.203125 597.40625 164.382812 C 598.9375 163.566406 600.503906 162.828125 602.109375 162.164062 C 603.714844 161.5 605.347656 160.917969 607.007812 160.414062 C 608.667969 159.910156 610.351562 159.492188 612.054688 159.152344 C 613.753906 158.816406 615.472656 158.5625 617.199219 158.390625 C 618.925781 158.222656 620.65625 158.136719 622.394531 158.136719 C 624.128906 158.136719 625.863281 158.222656 627.589844 158.390625 C 629.316406 158.5625 631.03125 158.816406 632.734375 159.152344 C 634.4375 159.492188 636.121094 159.910156 637.78125 160.414062 C 639.441406 160.917969 641.074219 161.5 642.679688 162.164062 C 644.28125 162.828125 645.851562 163.566406 647.378906 164.382812 C 648.910156 165.203125 650.398438 166.089844 651.84375 167.054688 C 653.285156 168.015625 654.679688 169.046875 656.019531 170.148438 C 657.363281 171.246094 658.648438 172.410156 659.875 173.636719 C 661.101562 174.859375 662.265625 176.144531 663.367188 177.484375 C 664.46875 178.820312 665.503906 180.210938 666.46875 181.652344 C 667.429688 183.09375 668.324219 184.578125 669.140625 186.109375 C 669.960938 187.636719 670.699219 189.199219 671.363281 190.800781 C 672.03125 192.402344 672.613281 194.03125 673.117188 195.691406 C 673.621094 197.347656 674.042969 199.027344 674.382812 200.726562 C 674.71875 202.429688 674.972656 204.140625 675.144531 205.863281 C 675.316406 207.589844 675.398438 209.316406 675.398438 211.050781 C 675.398438 212.785156 675.3125 214.511719 675.140625 216.238281 C 674.96875 217.960938 674.714844 219.671875 674.375 221.371094 C 674.035156 223.070312 673.613281 224.75 673.109375 226.40625 C 672.605469 228.066406 672.019531 229.695312 671.355469 231.292969 C 670.691406 232.894531 669.949219 234.460938 669.128906 235.988281 C 668.3125 237.515625 667.417969 239 666.453125 240.441406 C 665.488281 241.878906 664.457031 243.269531 663.355469 244.609375 C 662.253906 245.949219 661.089844 247.230469 659.863281 248.457031 C 658.636719 249.679688 657.351562 250.84375 656.011719 251.941406 C 654.667969 253.042969 653.277344 254.074219 651.832031 255.035156 C 650.390625 256 648.902344 256.890625 647.371094 257.707031 C 645.84375 258.523438 644.277344 259.261719 642.671875 259.925781 C 641.070312 260.589844 639.4375 261.175781 637.777344 261.679688 C 636.117188 262.183594 634.433594 262.601562 632.730469 262.941406 C 631.03125 263.28125 629.316406 263.535156 627.589844 263.707031 C 625.859375 263.878906 624.128906 263.964844 622.394531 263.964844 Z M 650.855469 185.246094 L 620.574219 244.917969 C 620.242188 245.585938 619.777344 246.148438 619.1875 246.605469 C 618.597656 247.0625 617.9375 247.371094 617.207031 247.527344 L 616.21875 247.527344 C 615.023438 247.527344 613.96875 247.144531 613.050781 246.378906 L 595.753906 232.035156 C 595.507812 231.828125 595.285156 231.597656 595.085938 231.34375 C 594.882812 231.089844 594.710938 230.824219 594.5625 230.535156 C 594.417969 230.25 594.296875 229.953125 594.207031 229.644531 C 594.121094 229.335938 594.0625 229.019531 594.035156 228.699219 C 594.007812 228.378906 594.011719 228.058594 594.046875 227.738281 C 594.082031 227.417969 594.144531 227.105469 594.242188 226.796875 C 594.339844 226.492188 594.464844 226.195312 594.617188 225.914062 C 594.773438 225.632812 594.953125 225.367188 595.160156 225.121094 C 595.367188 224.878906 595.59375 224.664062 595.84375 224.46875 C 596.09375 224.273438 596.359375 224.105469 596.640625 223.960938 C 596.921875 223.820312 597.214844 223.703125 597.519531 223.617188 C 597.824219 223.53125 598.132812 223.476562 598.449219 223.449219 C 598.765625 223.425781 599.078125 223.429688 599.394531 223.464844 C 599.707031 223.5 600.015625 223.566406 600.320312 223.664062 C 600.621094 223.757812 600.910156 223.882812 601.1875 224.035156 C 601.464844 224.1875 601.726562 224.363281 601.96875 224.566406 L 614.59375 235.117188 L 642.070312 180.9375 C 642.214844 180.652344 642.386719 180.378906 642.585938 180.125 C 642.785156 179.871094 643.007812 179.640625 643.25 179.429688 C 643.496094 179.21875 643.757812 179.035156 644.039062 178.875 C 644.320312 178.71875 644.617188 178.585938 644.921875 178.484375 C 645.230469 178.386719 645.542969 178.316406 645.863281 178.277344 C 646.183594 178.238281 646.507812 178.230469 646.828125 178.253906 C 647.152344 178.277344 647.46875 178.332031 647.777344 178.417969 C 648.089844 178.503906 648.390625 178.621094 648.679688 178.765625 C 648.96875 178.910156 649.238281 179.082031 649.492188 179.28125 C 649.746094 179.480469 649.980469 179.703125 650.191406 179.945312 C 650.402344 180.191406 650.585938 180.453125 650.746094 180.734375 C 650.90625 181.015625 651.035156 181.308594 651.136719 181.617188 C 651.238281 181.921875 651.308594 182.234375 651.347656 182.554688 C 651.386719 182.875 651.394531 183.195312 651.371094 183.519531 C 651.347656 183.839844 651.289062 184.15625 651.203125 184.464844 C 651.117188 184.777344 651.003906 185.078125 650.855469 185.363281 Z M 650.855469 185.246094 "/></g></g></svg>